<?xml version="1.0" encoding="utf-8"?>
<!--
  banner.svg
  Auto-generated by GitHub Action
  Size: 1200x360
  Style: Minimal, neon gradient, orbiting tech icons, retro terminal accents
-->
<svg xmlns="http://www.w3.org/2000/svg" viewBox="0 0 1200 360" width="1200" height="360" role="img" aria-label="Ankush - Neon GitHub Banner">
  <defs>
    <linearGradient id="g1" x1="0" x2="1">
      <stop offset="0" stop-color="#00ffd5"/>
      <stop offset="0.45" stop-color="#7f00ff"/>
      <stop offset="1" stop-color="#ff3d81"/>
    </linearGradient>
    <linearGradient id="bg" x1="0" x2="0" y1="0" y2="1">
      <stop offset="0" stop-color="#02030a"/>
      <stop offset="1" stop-color="#050612"/>
    </linearGradient>

    <filter id="softGlow" x="-50%" y="-50%" width="200%" height="200%">
      <feGaussianBlur stdDeviation="8" result="b"/>
      <feMerge><feMergeNode in="b"/><feMergeNode in="SourceGraphic"/></feMerge>
    </filter>

    <style><![CDATA[
      .mono { font-family: ui-monospace, SFMono-Regular, Menlo, "Roboto Mono", monospace; }
      .sans { font-family: Inter, "Segoe UI", Roboto, Helvetica, Arial, sans-serif; }
      .orbit { transform-origin: 600px 180px; }
      .small { font-size:13px; fill:#9fb7ff; }
      .glowStroke { stroke:url(#g1); stroke-linecap:round; stroke-linejoin:round; }
    ]]></style>
  </defs>

  <!-- Background -->
  <rect width="1200" height="360" fill="url(#bg)"/>

  <!-- subtle grid lines -->
  <g opacity="0.06">
    <pattern id="p" width="12" height="12" patternUnits="userSpaceOnUse">
      <path d="M12 0 L0 0 0 12" fill="none" stroke="#ffffff" stroke-width="0.3"/>
    </pattern>
    <rect width="1200" height="360" fill="url(#p)"/>
  </g>

  <!-- central card -->
  <g transform="translate(60,48)">
    <rect x="0" y="0" width="1080" height="264" rx="14" fill="rgba(6,8,14,0.6)"/>
    <rect x="0" y="0" width="1080" height="264" rx="14" fill="none" class="glowStroke" stroke-width="1.6" filter="url(#softGlow)"/>
    <!-- scanlines -->
    <g opacity="0.06">
      <rect x="0" y="0" width="1080" height="264" rx="14" fill="url(#p)"/>
    </g>
  </g>

  <!-- left column: name & tagline -->
  <g transform="translate(100,120)">
    <text class="sans" x="0" y="-8" font-size="36" fill="#eaf6ff" font-weight="700">Ankush</text>
    <text class="mono" x="0" y="24" font-size="15" fill="#b6c6ff" font-weight="600">Passionate Software Engineer · Distributed Systems Enthusiast</text>
    <text class="mono" x="0" y="46" font-size="14" fill="#9fb7ff">ML & AI · Cloud-Native · ⚽ Sports Lover · 🎸 Worst Guitarist</text>

    <!-- terminal box -->
    <g transform="translate(0,64)">
      <rect x="0" y="0" width="520" height="72" rx="8" fill="rgba(2,6,12,0.5)" stroke="#081227" stroke-width="1"/>
      <text class="mono" x="16" y="24" font-size="12" fill="#00ffd5">$ whoami</text>
      <text class="mono" x="16" y="44" font-size="12" fill="#cfefff">Ankush — Software Engineer | Cloud-Native | ML & AI</text>
      <rect x="16" y="50" width="8" height="6" rx="1" fill="#00ffd5" opacity="0.9"/>
    </g>
  </g>

  <!-- orbiting neon icons (centered) -->
  <g id="orbitGroup" transform="translate(600,180)">
    <!-- central neon core -->
    <circle r="48" fill="#071226" stroke="url(#g1)" stroke-width="3" filter="url(#softGlow)"/>
    <text class="mono" x="-36" y="6" font-size="12" fill="#e9f7ff">Cloud • Systems • ML</text>

    <!-- orbit circles (animated with SMIL rotate) -->
    <!-- ring 1: tech icons -->
    <g id="ring1" class="orbit">
      <g id="k8" transform="translate(0,-120)">
        <polygon points="-18,-9 18,-9 28,9 0,26 -28,9" fill="#071226" stroke="url(#g1)" stroke-width="1.6"/>
        <text x="-10" y="36" class="small">K8s</text>
      </g>
      <g id="docker" transform="translate(100,-60)">
        <rect x="-18" y="-10" width="36" height="20" rx="4" fill="#071833" stroke="url(#g1)" stroke-width="1.4"/>
        <text x="-12" y="36" class="small">Docker</text>
      </g>
      <g id="aws" transform="translate(100,60)">
        <path d="M-18,0 a18,12 0 1,0 36,0 a18,12 0 1,0 -36,0" fill="#071226" stroke="url(#g1)" stroke-width="1.6"/>
        <text x="-14" y="36" class="small">AWS</text>
      </g>
      <g id="go" transform="translate(0,120)">
        <circle r="14" fill="#071226" stroke="url(#g1)" stroke-width="1.6"/>
        <text x="-8" y="36" class="small">Go</text>
      </g>
      <g id="ml" transform="translate(-100,60)">
        <rect x="-14" y="-10" width="28" height="20" rx="5" fill="#071226" stroke="url(#g1)" stroke-width="1.6"/>
        <text x="-16" y="36" class="small">AI</text>
      </g>
      <g id="guitar" transform="translate(-100,-60)">
        <ellipse rx="10" ry="6" fill="#071226" stroke="url(#g1)" stroke-width="1.6"/>
        <text x="-18" y="36" class="small">🎸</text>
      </g>

      <animateTransform attributeName="transform" attributeType="XML" type="rotate" from="0 0 0" to="-360 0 0" dur="38s" repeatCount="indefinite"/>
    </g>

    <!-- subtle second ring (faster) -->
    <g id="ring2" class="orbit">
      <g transform="translate(0,-165)">
        <circle r="6" fill="url(#g1)" filter="url(#softGlow)"/>
      </g>
      <g transform="translate(140,-90)">
        <circle r="5" fill="url(#g1)" filter="url(#softGlow)"/>
      </g>
      <g transform="translate(140,90)">
        <circle r="4" fill="url(#g1)" filter="url(#softGlow)"/>
      </g>
      <g transform="translate(0,165)">
        <circle r="5" fill="url(#g1)" filter="url(#softGlow)"/>
      </g>
      <g transform="translate(-140,90)">
        <circle r="4" fill="url(#g1)" filter="url(#softGlow)"/>
      </g>
      <g transform="translate(-140,-90)">
        <circle r="5" fill="url(#g1)" filter="url(#softGlow)"/>
      </g>

      <animateTransform attributeName="transform" attributeType="XML" type="rotate" from="0 0 0" to="360 0 0" dur="22s" repeatCount="indefinite"/>
    </g>
  </g>

  <!-- right column with tech badges -->
  <g transform="translate(740,120)" font-family="Inter, sans-serif" >
    <text x="0" y="-12" fill="#cfefff" font-weight="700" font-size="14">Tech & Tools</text>

    <!-- badges (stylized small tokens) -->
    <g transform="translate(0,12)">
      <rect x="0" y="0" width="110" height="28" rx="6" fill="#081226" stroke="url(#g1)" stroke-width="1.6"/>
      <text x="14" y="19" fill="#eaf6ff" font-size="12" class="mono">Go · Java · Python</text>

      <rect x="126" y="0" width="160" height="28" rx="6" fill="#081226" stroke="url(#g1)" stroke-width="1.6"/>
      <text x="136" y="19" fill="#eaf6ff" font-size="12" class="mono">React · Spring · Tailwind</text>

      <rect x="0" y="40" width="170" height="28" rx="6" fill="#081226" stroke="url(#g1)" stroke-width="1.6"/>
      <text x="14" y="59" fill="#eaf6ff" font-size="12" class="mono">Docker · K8s · Kafka · Jenkins</text>

      <rect x="190" y="40" width="170" height="28" rx="6" fill="#081226" stroke="url(#g1)" stroke-width="1.6"/>
      <text x="200" y="59" fill="#eaf6ff" font-size="12" class="mono">AWS · Prometheus · Grafana</text>
    </g>
  </g>

  <!-- footer decorative matrix-drops -->
  <g transform="translate(70,320)" opacity="0.12">
    <rect x="0" y="0" width="1060" height="20" fill="url(#g1)" />
  </g>
</svg>
